Coordinates
version=1
nRows=14
nColumns=36
inDegrees=yes

Units are S.I. units (second, meters, Newtons, ...)
If the header above contains a line with 'inDegrees', this indicates whether rotational values are in degrees (yes) or radians (no).

endheader
time	pelvis_tilt	pelvis_list	pelvis_rotation	pelvis_tx	pelvis_ty	pelvis_tz	hip_flexion_r	hip_adduction_r	hip_rotation_r	knee_angle_r	knee_angle_r_beta	ankle_angle_r	subtalar_angle_r	mtp_angle_r	hip_flexion_l	hip_adduction_l	hip_rotation_l	knee_angle_l	knee_angle_l_beta	ankle_angle_l	subtalar_angle_l	mtp_angle_l	lumbar_extension	lumbar_bending	lumbar_rotation	arm_flex_r	arm_add_r	arm_rot_r	elbow_flex_r	pro_sup_r	arm_flex_l	arm_add_l	arm_rot_l	elbow_flex_l	pro_sup_l
      0.00000000	     -1.61561112	     -1.08620131	      3.64163244	      0.30277786	      0.93979858	     -0.11335165	      1.04545856	     -4.28711050	      0.82086165	      5.25100108	      0.09164726	     -1.62956387	    -17.17196148	     -6.03985863	      2.20134706	     -3.52579509	      1.53445226	      6.69530590	      0.11685513	      1.50640328	    -14.97695977	     -6.03985863	     -0.35580614	      1.48852934	     -1.20228707	      0.06296066	     -7.51031701	     -6.38748944	     31.00283424	     87.72301681	     -0.94587169	     -6.30640856	     -1.27861377	     23.22662485	     78.87885834
      0.01694910	     -3.67107358	     -1.30689083	      3.73719166	      0.30524136	      0.93778067	     -0.11378002	      2.98093805	     -4.16934955	      1.29057298	      4.91061328	      0.08570637	      1.26251947	    -13.77907489	     -6.36204000	      4.80185859	     -3.42953321	      1.22370916	      6.37138836	      0.11120170	      1.33618330	    -13.39346050	     -6.36204000	      3.34929672	      1.72186743	     -1.23007872	     -1.89510510	     -6.51891895	    -13.81667578	     32.19683994	     84.34253989	     -1.60182321	     -4.86306097	     -8.27501449	     22.83648494	     76.49118326
      0.03389830	     -4.40143721	     -0.70419554	      3.53882021	      0.30578384	      0.93585790	     -0.11325735	      3.19472879	     -5.04196823	      0.84262377	      3.96377490	      0.06918092	      1.59020927	    -12.79646010	     -6.62104787	      5.29214213	     -2.89036306	      0.38634232	      5.79591177	      0.10115774	      0.87639766	    -12.23638473	     -6.62104787	      4.53293437	      0.85537991	     -0.96477095	     -2.96396295	     -6.03283647	    -17.32185033	     33.07678302	     84.29572746	     -2.17519015	     -5.06867675	    -10.08302649	     22.86750014	     77.43845551
      0.05084750	     -4.24767325	     -0.25987692	      3.50983328	      0.30592751	      0.93630884	     -0.11305468	      2.71514126	     -5.59990762	      0.74554249	      3.46086789	      0.06040354	      2.16688592	    -12.18959092	     -6.71315644	      4.44717599	     -2.41476204	      0.37832203	      4.80183543	      0.08380784	      0.50870520	    -12.11782047	     -6.71315644	      4.59992599	      0.22354516	     -0.98268515	     -3.47601822	     -5.97917488	    -17.79683035	     33.37825211	     82.82965209	     -2.68769097	     -5.41654164	    -10.20637869	     23.19036512	     76.31550537
      0.06779660	     -4.32805527	     -0.15886565	      3.38869563	      0.30171262	      0.93634763	     -0.10843484	      2.82232420	     -5.55767605	      0.85537799	      3.17855452	      0.05547624	      2.46351492	    -12.27964253	     -6.71517000	      4.43778156	     -2.42531281	      0.48875263	      4.47236358	      0.07805747	      0.51388176	    -12.14008535	     -6.71517000	      4.47285225	      0.07382556	     -0.89252455	     -3.44194487	     -5.95841479	    -17.86351239	     33.37901221	     82.82172221	     -2.70667017	     -5.58734376	    -10.24865217	     23.13205387	     76.30351702
      0.08474580	     -3.89714581	      0.09733699	      3.39382556	      0.30168242	      0.93428575	     -0.10807840	      2.25301281	     -5.62247201	      1.37244544	      2.84327236	      0.04962446	      2.75531975	    -12.41822204	     -6.78657966	      3.74565767	     -2.23839079	      1.04870079	      3.97554060	      0.06938627	      0.09427369	    -12.95404098	     -6.78657966	      3.91739710	     -0.35642007	     -0.56886005	     -3.53142247	     -5.72666578	    -18.59733444	     33.54860186	     81.61282160	     -1.94809657	     -5.80635739	    -10.61396741	     22.98663064	     75.22036100
      0.10169490	     -3.89641695	      0.30643532	      3.51825519	      0.30582085	      0.93724586	     -0.11290348	      2.05832713	     -5.82034540	      1.46965935	      2.71219630	      0.04733676	      2.89816382	    -12.47525345	     -6.79091038	      3.54059644	     -1.97404941	      1.39320608	      3.74059244	      0.06528565	      0.16967783	    -12.97184388	     -6.79091038	      4.06499695	     -0.63750078	     -0.68312560	     -3.74724593	     -5.73812158	    -18.79417765	     33.53183777	     81.58310441	     -1.87276223	     -5.75344040	    -10.69267897	     22.85820818	     75.16547710
      0.11864410	     -3.52930449	      0.44681663	      3.72323368	      0.30565616	      0.93791644	     -0.11287766	      1.48701465	     -5.94127650	      1.60748358	      2.54908600	      0.04448994	      2.84851174	    -12.66758090	     -6.85544505	      3.00671216	     -1.75963133	      1.76456718	      3.57034352	      0.06231425	      0.02440889	    -13.38040912	     -6.85544505	      3.61777828	     -0.85263846	     -0.75890714	     -4.05224678	     -5.55946263	    -19.35726574	     33.82067474	     80.41512997	     -1.46849066	     -5.59907649	    -11.04879155	     22.61338616	     74.09384720
      0.13559320	     -3.36044871	      0.52641551	      3.89728474	      0.30553871	      0.93789138	     -0.11298980	      1.20072479	     -6.05144187	      1.76732240	      2.47499215	      0.04319676	      2.93867971	    -12.86197180	     -6.98994436	      2.80785169	     -1.61450508	      2.09675633	      3.58650963	      0.06259640	     -0.07368574	    -13.51584664	     -6.98994436	      3.49966857	     -0.99187755	     -0.81379831	     -4.16833210	     -5.40786088	    -19.79532589	     33.60921785	     78.16413472	     -1.11632426	     -5.41037231	    -11.49202718	     22.14796956	     72.13252185
      0.15254240	     -3.39077320	      0.58496987	      4.05225595	      0.30546441	      0.94049938	     -0.11279123	      1.12615869	     -6.12510586	      1.98289775	      2.36618963	      0.04129780	      2.73941894	    -13.43577899	     -7.08075805	      2.86595171	     -1.51590138	      2.63626175	      3.55884860	      0.06211363	     -0.70815023	    -14.52449872	     -7.08075805	      3.63607858	     -1.14074820	     -0.79581202	     -4.66474628	     -5.41926738	    -19.90274574	     33.77879355	     76.85958780	     -0.75181708	     -5.30820785	    -11.52782767	     21.55630405	     70.80067074
      0.16949150	     -3.22507458	      0.65829056	      4.15908722	      0.30534444	      0.94017036	     -0.11275129	      0.84856789	     -6.19106035	      2.07710949	      2.22559405	      0.03884394	      2.62950952	    -13.73066341	     -7.34169900	      2.67865172	     -1.46741240	      2.75076280	      3.49158719	      0.06093969	     -0.82354491	    -14.49867237	     -7.34169900	      3.43335438	     -1.23159090	     -0.65336269	     -5.05295201	     -5.18355208	    -21.98515473	     34.29472012	     82.52456727	     -0.42229903	     -5.31463364	    -11.75105407	     21.06514426	     72.39810895
      0.18644070	     -3.11975121	      0.72368605	      4.19702461	      0.30533559	      0.94054092	     -0.11292678	      0.67705869	     -6.25096416	      2.10452160	      2.16212141	      0.03773614	      2.49060558	    -13.99401445	     -7.38700992	      2.50110647	     -1.43812059	      2.91910756	      3.33290207	      0.05817011	     -1.10086748	    -14.69907299	     -7.38700992	      3.34158808	     -1.34530086	     -0.80529756	     -5.08063836	     -5.31294764	    -21.26560626	     34.09736396	     80.09671739	     -0.27740230	     -5.24848737	    -11.90516148	     20.82880775	     70.86490192
      0.20338980	     -2.95902265	      0.77415117	      4.19978343	      0.30539922	      0.94025982	     -0.11298482	      0.48530432	     -6.29426656	      2.15343951	      2.13709710	      0.03729938	      2.44627939	    -14.18243105	     -7.45291941	      2.22685662	     -1.37275774	      2.92188515	      3.23886442	      0.05652885	     -1.04543293	    -14.68944456	     -7.45291941	      3.15308966	     -1.35879812	     -0.78790418	     -5.09587325	     -5.27722226	    -22.05708275	     34.01441900	     83.01061016	     -0.11548802	     -5.15828822	    -12.41180402	     20.67719127	     72.65966854
      0.22033900	     -2.83833701	      0.73814500	      4.26616581	      0.30537726	      0.94292768	     -0.11278341	      0.30615419	     -6.24366119	      2.11216350	      2.06751110	      0.03608488	      2.24231359	    -14.35111580	     -7.46703209	      1.97778992	     -1.41640078	      2.99932725	      3.07427206	      0.05365617	     -1.10833119	    -14.63185803	     -7.46703209	      3.05409326	     -1.32371170	     -0.94077282	     -4.98660555	     -5.45150582	    -21.00938589	     33.64951896	     79.82751063	     -0.01875747	     -5.02133005	    -12.30183655	     20.26814150	     70.67136066
